<svg id="prefix___Слой_2" data-name="Слой 2" xmlns="http://www.w3.org/2000/svg" viewBox="0 0 785.57 246.05"><defs><style>.prefix__cls-1{fill:currentColor;stroke-width:0}</style></defs><g id="prefix__Layer_1" data-name="Layer 1"><path d="M355.69 51.73c-9.67 0-18.89 1.91-27.34 5.35l9.97-42.73h83V0h-94.38l-15.05 64.5.73.6.83.19c-.1.07-.2.16-.31.23l11.6 9.44a58.064 58.064 0 0133.15-8.85c30.66 1.14 55.39 26.13 56.22 56.79.9 32.97-25.66 60.08-58.44 60.08-26.73 0-49.31-18.03-56.25-42.57-4.82-40.26-35.08-72.8-74.2-81.05L308.09 0H167.45v14.34h96l-80.08 57.38h23.96c38.49.75 70.4 28.78 77.13 65.52.26 1.41.44 2.83.59 4.25.03.25.06.51.09.75.24 1.65.4 3.3.5 4.96.08 1.48.13 2.98.13 4.48 0 44.12-35.89 80.01-80.01 80.01-39.82 0-72.93-29.24-79.01-67.37h-14.5c6.2 46.07 45.76 81.72 93.51 81.72s84.35-33.04 92.68-76.62c16.86 21.46 45.48 33.25 76.07 25.53 26-6.56 46.13-27.35 52.06-53.5 10.76-47.46-25.22-89.72-70.88-89.72z" fill="#7f7b7d"/><path class="prefix__cls-1" d="M38.92 155.17c-23.62 0-30.72-19.51-30.72-38.9 0-20.48 9.03-38.43 29.98-38.43 14.82 0 23.97 5.67 27.34 20.48h8.43c-2.77-17.95-15.77-27.46-33.61-27.46C17.33 70.86 0 83.39 0 116.51c0 24.57 10.6 45.65 37.33 45.65 23.25 0 33.73-14.09 37.57-30.83h-8.54c-3.24 13.72-12.53 23.83-27.46 23.83zM100.34 109.17h-.24V97.49h-7.22v62.39h7.22v-30.6c0-13.97 4.33-25.64 20.59-25.64V95.8c-10.46 0-16.37 3.38-20.35 13.38zM161.64 95.79c-19.27 0-28.91 14.69-28.91 32.88 0 21.8 13.02 32.89 28.91 32.89 17.46 0 28.91-13.12 28.91-32.89 0-18.3-9.4-32.88-28.91-32.88zm0 59.26c-13.86 0-21.2-10.83-21.2-26.38 0-13.48 6.03-26.37 21.2-26.37s21.21 11.68 21.21 26.37c0 13.39-6.02 26.38-21.21 26.38zM233.79 155.05c-14.95 0-20.95-13.12-20.95-26.26s6.13-26.48 20.95-26.48c9.63 0 16.02 5.53 18.54 14.8h7.36c-2.17-14.46-11.55-21.32-25.9-21.32-18.67 0-28.67 15.65-28.67 32.99 0 18.43 8.8 32.76 28.67 32.76 15.65 0 24.33-9.39 26.86-23.25h-7.7c-1.71 10.37-8.44 16.75-19.16 16.75zM320.4 131.45c0 13.72-7.11 23.6-19.04 23.6-11.31 0-16.01-5.91-16.01-16.62V97.49h-7.22v41.06c0 13.01 5.52 23.01 22.15 23.01 9.4 0 15.31-4.57 20.01-10.35h.12v8.67h7.23V97.49h-7.23v33.96zM352.79 113.02c0-6.38 4.94-10.71 14.09-10.71s15.53 3.49 16.86 13.12h7.36c-1.81-14.09-10.59-19.63-24.09-19.63s-21.93 7.47-21.93 17.83c0 24.57 40.01 11.8 40.01 29.87 0 6.02-4.95 11.56-15.42 11.56s-16.38-3.97-18.66-14.69h-7.36c.59 11.8 9.02 21.2 23.71 21.2s25.42-6.25 25.42-18.19c0-23.96-39.99-13.37-39.99-30.35zM484.69 122.05h29.26c0 22.16-13.12 33.12-29.87 33.12-19.87 0-31.43-16.75-31.43-35.89 0-24.56 9.63-41.43 32.52-41.43 12.88 0 24.33 7.48 27.22 20.48h8.42c-3.72-18.55-18.05-27.46-36.25-27.46-27.33 0-40.11 19.75-40.11 45.17 0 30.83 16.02 46.13 37.95 46.13 17.1 0 26.37-6.74 32.39-17.11v14.82h6.99v-44.81h-37.1v6.98zM550.68 109.17h-.23V97.49h-7.22v62.39h7.22v-30.6c0-13.97 4.33-25.64 20.58-25.64V95.8c-10.47 0-16.37 3.38-20.36 13.38zM612 95.79c-19.27 0-28.91 14.69-28.91 32.88 0 21.8 13.01 32.89 28.91 32.89 17.46 0 28.91-13.12 28.91-32.89 0-18.3-9.4-32.88-28.91-32.88zm0 59.26c-13.85 0-21.2-10.83-21.2-26.38 0-13.48 6.03-26.37 21.2-26.37s21.2 11.68 21.2 26.37c0 13.39-6.02 26.38-21.2 26.38zM700.64 131.45c0 13.72-7.09 23.6-19.02 23.6s-16.03-5.91-16.03-16.62V97.49h-7.23v41.06c0 13.01 5.55 23.01 22.16 23.01 9.41 0 15.31-4.57 20-10.35h.11v8.67h7.22V97.49h-7.22v33.96zM757.36 95.79c-7.94 0-17.45 4.46-21.67 12.65h-.24V97.48h-7.23v86.96h7.23v-34.58c4.57 7.6 13.49 11.69 22.29 11.69 19.01 0 27.83-15.54 27.83-33.01 0-18.43-8.07-32.76-28.21-32.76zm-.82 59.26c-13.61 0-21.09-12.04-21.09-25.53 0-17.59 8.55-27.22 21.09-27.22 14.93 0 21.31 12.4 21.31 27.46 0 14.21-9.15 25.29-21.31 25.29z"/></g></svg>